<svg xmlns="http://www.w3.org/2000/svg" xmlns:xlink="http://www.w3.org/1999/xlink" id="processonSvg1000" viewBox="165.001953125 38.01171875 606.0 903.0" width="606.0" height="903.0"><defs id="ProcessOnDefs1001"/><g id="ProcessOnG1002"><path id="ProcessOnPath1003" d="M165.001953125 38.01171875H771.001953125V941.01171875H165.001953125V38.01171875Z" fill="none"/><g id="ProcessOnG1004"><g id="ProcessOnG1005" transform="matrix(1.0,0.0,0.0,1.0,407.501953125,379.01171875)" opacity="1.0"><path id="ProcessOnPath1006" d="M0.0 0.0L135.0 0.0L135.0 69.0L0.0 69.0Z" stroke="#323232" stroke-width="2.0" stroke-dasharray="none" opacity="1.0" fill="#ffffff"/><g id="ProcessOnG1007" transform="matrix(1.0,0.0,0.0,1.0,10.0,23.25)"><text id="ProcessOnText1008" fill="#000000" font-size="18" x="56.5" y="18.45" font-family="微软雅黑" font-weight="normal" font-style="normal" text-decoration="none" family="微软雅黑" text-anchor="middle" size="18">weibo_user</text></g></g><g id="ProcessOnG1009" transform="matrix(1.0,0.0,0.0,1.0,399.001953125,548.01171875)" opacity="1.0"><path id="ProcessOnPath1010" d="M0.0 40.0L75.5 0.0L151.0 40.0L75.5 80.0Z" stroke="#323232" stroke-width="2.0" stroke-dasharray="none" opacity="1.0" fill="#ffffff"/><g id="ProcessOnG1011" transform="matrix(1.0,0.0,0.0,1.0,10.0,29.15)"><text id="ProcessOnText1012" fill="#000000" font-size="18" x="64.5" y="18.45" font-family="微软雅黑" font-weight="normal" font-style="normal" text-decoration="none" family="微软雅黑" text-anchor="middle" size="18">post</text></g></g><g id="ProcessOnG1013" transform="matrix(1.0,0.0,0.0,1.0,410.001953125,731.01171875)" opacity="1.0"><path id="ProcessOnPath1014" d="M0.0 0.0L129.0 0.0L129.0 69.0L0.0 69.0Z" stroke="#323232" stroke-width="2.0" stroke-dasharray="none" opacity="1.0" fill="#ffffff"/><g id="ProcessOnG1015" transform="matrix(1.0,0.0,0.0,1.0,10.0,23.25)"><text id="ProcessOnText1016" fill="#000000" font-size="18" x="53.5" y="18.45" font-family="微软雅黑" font-weight="normal" font-style="normal" text-decoration="none" family="微软雅黑" text-anchor="middle" size="18">user_post</text></g></g><g id="ProcessOnG1017"><path id="ProcessOnPath1018" d="M475.001953125 448.01171875L475.001953125 498.01171875L474.501953125 498.01171875L474.501953125 548.01171875" stroke="#323232" stroke-width="2.0" stroke-dasharray="none" fill="none"/><g id="ProcessOnG1019" transform="matrix(1.0,0.0,0.0,1.0,474.751953125,486.76171875)"><path id="ProcessOnPath1020" d="M0 0H11.0V22.5H0Z" fill="#fff" transform="matrix(1.0,0.0,0.0,1.0,-5.5,0.0)"/><text id="ProcessOnText1021" fill="#000000" font-size="18" x="0.0" y="18.45" font-family="微软雅黑" font-weight="normal" font-style="normal" text-decoration="none" family="微软雅黑" text-anchor="middle" size="18">1</text></g></g><g id="ProcessOnG1022"><path id="ProcessOnPath1023" d="M474.501953125 628.01171875L474.501953125 679.51171875L474.501953125 679.51171875L474.501953125 731.01171875" stroke="#323232" stroke-width="2.0" stroke-dasharray="none" fill="none"/><g id="ProcessOnG1024" transform="matrix(1.0,0.0,0.0,1.0,474.501953125,668.26171875)"><path id="ProcessOnPath1025" d="M0 0H15.0V22.5H0Z" fill="#fff" transform="matrix(1.0,0.0,0.0,1.0,-7.5,0.0)"/><text id="ProcessOnText1026" fill="#000000" font-size="18" x="0.0" y="18.45" font-family="微软雅黑" font-weight="normal" font-style="normal" text-decoration="none" family="微软雅黑" text-anchor="middle" size="18">N</text></g></g><g id="ProcessOnG1027" transform="matrix(1.0,0.0,0.0,1.0,185.001953125,305.01171875)" opacity="1.0"><path id="ProcessOnPath1028" d="M0.0 29.5C0.0 -9.833333333333334 98.0 -9.833333333333334 98.0 29.5C98.0 68.83333333333333 0.0 68.83333333333333 0.0 29.5Z" stroke="#323232" stroke-width="2.0" stroke-dasharray="none" opacity="1.0" fill="#ffffff"/><g id="ProcessOnG1029" transform="matrix(1.0,0.0,0.0,1.0,10.0,19.5)"><text id="ProcessOnText1030" fill="#000000" font-size="16" x="38.0" y="16.4" font-family="微软雅黑" font-weight="normal" font-style="normal" text-decoration="none" family="微软雅黑" text-anchor="middle" size="16">user_id</text></g></g><g id="ProcessOnG1031" transform="matrix(1.0,0.0,0.0,1.0,241.001953125,243.01171875)" opacity="1.0"><path id="ProcessOnPath1032" d="M0.0 29.5C0.0 -9.833333333333334 98.0 -9.833333333333334 98.0 29.5C98.0 68.83333333333333 0.0 68.83333333333333 0.0 29.5Z" stroke="#323232" stroke-width="2.0" stroke-dasharray="none" opacity="1.0" fill="#ffffff"/><g id="ProcessOnG1033" transform="matrix(1.0,0.0,0.0,1.0,10.0,9.5)"><text id="ProcessOnText1034" fill="#000000" font-size="16" x="38.0" y="16.4" font-family="微软雅黑" font-weight="normal" font-style="normal" text-decoration="none" family="微软雅黑" text-anchor="middle" size="16">user_nam</text><text id="ProcessOnText1035" fill="#000000" font-size="16" x="38.0" y="36.4" font-family="微软雅黑" font-weight="normal" font-style="normal" text-decoration="none" family="微软雅黑" text-anchor="middle" size="16">e</text></g></g><g id="ProcessOnG1036" transform="matrix(1.0,0.0,0.0,1.0,322.001953125,198.01171875)" opacity="1.0"><path id="ProcessOnPath1037" d="M0.0 29.5C0.0 -9.833333333333334 98.0 -9.833333333333334 98.0 29.5C98.0 68.83333333333333 0.0 68.83333333333333 0.0 29.5Z" stroke="#323232" stroke-width="2.0" stroke-dasharray="none" opacity="1.0" fill="#ffffff"/><g id="ProcessOnG1038" transform="matrix(1.0,0.0,0.0,1.0,10.0,19.5)"><text id="ProcessOnText1039" fill="#000000" font-size="16" x="38.0" y="16.4" font-family="微软雅黑" font-weight="normal" font-style="normal" text-decoration="none" family="微软雅黑" text-anchor="middle" size="16">gender</text></g></g><g id="ProcessOnG1040" transform="matrix(1.0,0.0,0.0,1.0,425.501953125,173.01171875)" opacity="1.0"><path id="ProcessOnPath1041" d="M0.0 29.5C0.0 -9.833333333333334 98.0 -9.833333333333334 98.0 29.5C98.0 68.83333333333333 0.0 68.83333333333333 0.0 29.5Z" stroke="#323232" stroke-width="2.0" stroke-dasharray="none" opacity="1.0" fill="#ffffff"/><g id="ProcessOnG1042" transform="matrix(1.0,0.0,0.0,1.0,10.0,19.5)"><text id="ProcessOnText1043" fill="#000000" font-size="16" x="38.0" y="16.4" font-family="微软雅黑" font-weight="normal" font-style="normal" text-decoration="none" family="微软雅黑" text-anchor="middle" size="16">class</text></g></g><g id="ProcessOnG1044" transform="matrix(1.0,0.0,0.0,1.0,527.001953125,198.01171875)" opacity="1.0"><path id="ProcessOnPath1045" d="M0.0 29.5C0.0 -9.833333333333334 98.0 -9.833333333333334 98.0 29.5C98.0 68.83333333333333 0.0 68.83333333333333 0.0 29.5Z" stroke="#323232" stroke-width="2.0" stroke-dasharray="none" opacity="1.0" fill="#ffffff"/><g id="ProcessOnG1046" transform="matrix(1.0,0.0,0.0,1.0,10.0,19.5)"><text id="ProcessOnText1047" fill="#000000" font-size="16" x="38.0" y="16.4" font-family="微软雅黑" font-weight="normal" font-style="normal" text-decoration="none" family="微软雅黑" text-anchor="middle" size="16">message</text></g></g><g id="ProcessOnG1048" transform="matrix(1.0,0.0,0.0,1.0,276.001953125,817.01171875)" opacity="1.0"><path id="ProcessOnPath1049" d="M0.0 29.5C0.0 -9.833333333333334 98.0 -9.833333333333334 98.0 29.5C98.0 68.83333333333333 0.0 68.83333333333333 0.0 29.5Z" stroke="#323232" stroke-width="2.0" stroke-dasharray="none" opacity="1.0" fill="#ffffff"/><g id="ProcessOnG1050" transform="matrix(1.0,0.0,0.0,1.0,10.0,19.5)"><text id="ProcessOnText1051" fill="#000000" font-size="16" x="38.0" y="16.4" font-family="微软雅黑" font-weight="normal" font-style="normal" text-decoration="none" family="微软雅黑" text-anchor="middle" size="16">poster_url</text></g></g><g id="ProcessOnG1052" transform="matrix(1.0,0.0,0.0,1.0,249.001953125,746.01171875)" opacity="1.0"><path id="ProcessOnPath1053" d="M0.0 29.5C0.0 -9.833333333333334 98.0 -9.833333333333334 98.0 29.5C98.0 68.83333333333333 0.0 68.83333333333333 0.0 29.5Z" stroke="#323232" stroke-width="2.0" stroke-dasharray="none" opacity="1.0" fill="#ffffff"/><g id="ProcessOnG1054" transform="matrix(1.0,0.0,0.0,1.0,10.0,19.5)"><text id="ProcessOnText1055" fill="#000000" font-size="16" x="38.0" y="16.4" font-family="微软雅黑" font-weight="normal" font-style="normal" text-decoration="none" family="微软雅黑" text-anchor="middle" size="16">poster</text></g></g><g id="ProcessOnG1056" transform="matrix(1.0,0.0,0.0,1.0,249.001953125,672.01171875)" opacity="1.0"><path id="ProcessOnPath1057" d="M0.0 29.5C0.0 -9.833333333333334 98.0 -9.833333333333334 98.0 29.5C98.0 68.83333333333333 0.0 68.83333333333333 0.0 29.5Z" stroke="#323232" stroke-width="2.0" stroke-dasharray="none" opacity="1.0" fill="#ffffff"/><g id="ProcessOnG1058" transform="matrix(1.0,0.0,0.0,1.0,10.0,19.5)"><text id="ProcessOnText1059" fill="#000000" font-size="16" x="38.0" y="16.4" font-family="微软雅黑" font-weight="normal" font-style="normal" text-decoration="none" family="微软雅黑" text-anchor="middle" size="16">poster_id</text></g></g><g id="ProcessOnG1060" transform="matrix(1.0,0.0,0.0,1.0,249.001953125,558.51171875)" opacity="1.0"><path id="ProcessOnPath1061" d="M0.0 29.5C0.0 -9.833333333333334 98.0 -9.833333333333334 98.0 29.5C98.0 68.83333333333333 0.0 68.83333333333333 0.0 29.5Z" stroke="#323232" stroke-width="2.0" stroke-dasharray="none" opacity="1.0" fill="#ffffff"/><g id="ProcessOnG1062" transform="matrix(1.0,0.0,0.0,1.0,10.0,19.5)"><text id="ProcessOnText1063" fill="#000000" font-size="16" x="38.0" y="16.4" font-family="微软雅黑" font-weight="normal" font-style="normal" text-decoration="none" family="微软雅黑" text-anchor="middle" size="16">post_id</text></g></g><g id="ProcessOnG1064" transform="matrix(1.0,0.0,0.0,1.0,621.001953125,515.51171875)" opacity="1.0"><path id="ProcessOnPath1065" d="M0.0 29.5C0.0 -9.833333333333334 98.0 -9.833333333333334 98.0 29.5C98.0 68.83333333333333 0.0 68.83333333333333 0.0 29.5Z" stroke="#323232" stroke-width="2.0" stroke-dasharray="none" opacity="1.0" fill="#ffffff"/><g id="ProcessOnG1066" transform="matrix(1.0,0.0,0.0,1.0,10.0,19.5)"><text id="ProcessOnText1067" fill="#000000" font-size="16" x="38.0" y="16.4" font-family="微软雅黑" font-weight="normal" font-style="normal" text-decoration="none" family="微软雅黑" text-anchor="middle" size="16">post_time</text></g></g><g id="ProcessOnG1068" transform="matrix(1.0,0.0,0.0,1.0,621.001953125,601.51171875)" opacity="1.0"><path id="ProcessOnPath1069" d="M0.0 29.5C0.0 -9.833333333333334 98.0 -9.833333333333334 98.0 29.5C98.0 68.83333333333333 0.0 68.83333333333333 0.0 29.5Z" stroke="#323232" stroke-width="2.0" stroke-dasharray="none" opacity="1.0" fill="#ffffff"/><g id="ProcessOnG1070" transform="matrix(1.0,0.0,0.0,1.0,10.0,9.5)"><text id="ProcessOnText1071" fill="#000000" font-size="16" x="38.0" y="16.4" font-family="微软雅黑" font-weight="normal" font-style="normal" text-decoration="none" family="微软雅黑" text-anchor="middle" size="16">scratch_ti</text><text id="ProcessOnText1072" fill="#000000" font-size="16" x="38.0" y="36.4" font-family="微软雅黑" font-weight="normal" font-style="normal" text-decoration="none" family="微软雅黑" text-anchor="middle" size="16">me</text></g></g><g id="ProcessOnG1073" transform="matrix(1.0,0.0,0.0,1.0,621.001953125,672.01171875)" opacity="1.0"><path id="ProcessOnPath1074" d="M0.0 29.5C0.0 -9.833333333333334 98.0 -9.833333333333334 98.0 29.5C98.0 68.83333333333333 0.0 68.83333333333333 0.0 29.5Z" stroke="#323232" stroke-width="2.0" stroke-dasharray="none" opacity="1.0" fill="#ffffff"/><g id="ProcessOnG1075" transform="matrix(1.0,0.0,0.0,1.0,10.0,9.5)"><text id="ProcessOnText1076" fill="#000000" font-size="16" x="38.0" y="16.4" font-family="微软雅黑" font-weight="normal" font-style="normal" text-decoration="none" family="微软雅黑" text-anchor="middle" size="16">repost_nu</text><text id="ProcessOnText1077" fill="#000000" font-size="16" x="38.0" y="36.4" font-family="微软雅黑" font-weight="normal" font-style="normal" text-decoration="none" family="微软雅黑" text-anchor="middle" size="16">m</text></g></g><g id="ProcessOnG1078" transform="matrix(1.0,0.0,0.0,1.0,621.001953125,746.01171875)" opacity="1.0"><path id="ProcessOnPath1079" d="M0.0 29.5C0.0 -9.833333333333334 98.0 -9.833333333333334 98.0 29.5C98.0 68.83333333333333 0.0 68.83333333333333 0.0 29.5Z" stroke="#323232" stroke-width="2.0" stroke-dasharray="none" opacity="1.0" fill="#ffffff"/><g id="ProcessOnG1080" transform="matrix(1.0,0.0,0.0,1.0,10.0,9.5)"><text id="ProcessOnText1081" fill="#000000" font-size="16" x="38.0" y="16.4" font-family="微软雅黑" font-weight="normal" font-style="normal" text-decoration="none" family="微软雅黑" text-anchor="middle" size="16">comment</text><text id="ProcessOnText1082" fill="#000000" font-size="16" x="38.0" y="36.4" font-family="微软雅黑" font-weight="normal" font-style="normal" text-decoration="none" family="微软雅黑" text-anchor="middle" size="16">_num</text></g></g><g id="ProcessOnG1083" transform="matrix(1.0,0.0,0.0,1.0,367.501953125,862.01171875)" opacity="1.0"><path id="ProcessOnPath1084" d="M0.0 29.5C0.0 -9.833333333333334 98.0 -9.833333333333334 98.0 29.5C98.0 68.83333333333333 0.0 68.83333333333333 0.0 29.5Z" stroke="#323232" stroke-width="2.0" stroke-dasharray="none" opacity="1.0" fill="#ffffff"/><g id="ProcessOnG1085" transform="matrix(1.0,0.0,0.0,1.0,10.0,19.5)"><text id="ProcessOnText1086" fill="#000000" font-size="16" x="38.0" y="16.4" font-family="微软雅黑" font-weight="normal" font-style="normal" text-decoration="none" family="微软雅黑" text-anchor="middle" size="16">post_time</text></g></g><g id="ProcessOnG1087" transform="matrix(1.0,0.0,0.0,1.0,489.501953125,862.01171875)" opacity="1.0"><path id="ProcessOnPath1088" d="M0.0 29.5C0.0 -9.833333333333334 98.0 -9.833333333333334 98.0 29.5C98.0 68.83333333333333 0.0 68.83333333333333 0.0 29.5Z" stroke="#323232" stroke-width="2.0" stroke-dasharray="none" opacity="1.0" fill="#ffffff"/><g id="ProcessOnG1089" transform="matrix(1.0,0.0,0.0,1.0,10.0,19.5)"><text id="ProcessOnText1090" fill="#000000" font-size="16" x="38.0" y="16.4" font-family="微软雅黑" font-weight="normal" font-style="normal" text-decoration="none" family="微软雅黑" text-anchor="middle" size="16">content</text></g></g><g id="ProcessOnG1091" transform="matrix(1.0,0.0,0.0,1.0,587.501953125,817.01171875)" opacity="1.0"><path id="ProcessOnPath1092" d="M0.0 29.5C0.0 -9.833333333333334 98.0 -9.833333333333334 98.0 29.5C98.0 68.83333333333333 0.0 68.83333333333333 0.0 29.5Z" stroke="#323232" stroke-width="2.0" stroke-dasharray="none" opacity="1.0" fill="#ffffff"/><g id="ProcessOnG1093" transform="matrix(1.0,0.0,0.0,1.0,10.0,19.5)"><text id="ProcessOnText1094" fill="#000000" font-size="16" x="38.0" y="16.4" font-family="微软雅黑" font-weight="normal" font-style="normal" text-decoration="none" family="微软雅黑" text-anchor="middle" size="16">image</text></g></g><g id="ProcessOnG1095"><path id="ProcessOnPath1096" d="M621.001953125 545.01171875L585.501953125 545.01171875L585.501953125 588.01171875L550.001953125 588.01171875" stroke="#323232" stroke-width="2.0" stroke-dasharray="none" fill="none"/></g><g id="ProcessOnG1097"><path id="ProcessOnPath1098" d="M621.001953125 631.01171875L585.501953125 631.01171875L585.501953125 588.01171875L550.001953125 588.01171875" stroke="#323232" stroke-width="2.0" stroke-dasharray="none" fill="none"/></g><g id="ProcessOnG1099"><path id="ProcessOnPath1100" d="M347.001953125 588.01171875L373.001953125 588.01171875L373.001953125 588.01171875L399.001953125 588.01171875" stroke="#323232" stroke-width="2.0" stroke-dasharray="none" fill="none"/></g><g id="ProcessOnG1101"><path id="ProcessOnPath1102" d="M347.001953125 701.51171875L378.501953125 701.51171875L378.501953125 765.51171875L410.001953125 765.51171875" stroke="#323232" stroke-width="2.0" stroke-dasharray="none" fill="none"/></g><g id="ProcessOnG1103"><path id="ProcessOnPath1104" d="M347.001953125 775.51171875L378.501953125 775.51171875L378.501953125 765.51171875L410.001953125 765.51171875" stroke="#323232" stroke-width="2.0" stroke-dasharray="none" fill="none"/></g><g id="ProcessOnG1105"><path id="ProcessOnPath1106" d="M374.001953125 846.51171875L392.001953125 846.51171875L392.001953125 765.51171875L410.001953125 765.51171875" stroke="#323232" stroke-width="2.0" stroke-dasharray="none" fill="none"/></g><g id="ProcessOnG1107"><path id="ProcessOnPath1108" d="M416.501953125 862.01171875L416.501953125 831.01171875L474.501953125 831.01171875L474.501953125 800.01171875" stroke="#323232" stroke-width="2.0" stroke-dasharray="none" fill="none"/></g><g id="ProcessOnG1109"><path id="ProcessOnPath1110" d="M538.501953125 862.01171875L538.501953125 831.01171875L474.501953125 831.01171875L474.501953125 800.01171875" stroke="#323232" stroke-width="2.0" stroke-dasharray="none" fill="none"/></g><g id="ProcessOnG1111"><path id="ProcessOnPath1112" d="M621.001953125 701.51171875L580.001953125 701.51171875L580.001953125 765.51171875L539.001953125 765.51171875" stroke="#323232" stroke-width="2.0" stroke-dasharray="none" fill="none"/></g><g id="ProcessOnG1113"><path id="ProcessOnPath1114" d="M621.001953125 775.51171875L580.001953125 775.51171875L580.001953125 765.51171875L539.001953125 765.51171875" stroke="#323232" stroke-width="2.0" stroke-dasharray="none" fill="none"/></g><g id="ProcessOnG1115"><path id="ProcessOnPath1116" d="M587.501953125 846.51171875L563.251953125 846.51171875L563.251953125 765.51171875L539.001953125 765.51171875" stroke="#323232" stroke-width="2.0" stroke-dasharray="none" fill="none"/></g><g id="ProcessOnG1117" transform="matrix(1.0,0.0,0.0,1.0,204.001953125,373.51171875)" opacity="1.0"><path id="ProcessOnPath1118" d="M0.0 40.0L71.5 0.0L143.0 40.0L71.5 80.0Z" stroke="#323232" stroke-width="2.0" stroke-dasharray="none" opacity="1.0" fill="#ffffff"/><g id="ProcessOnG1119" transform="matrix(1.0,0.0,0.0,1.0,10.0,29.15)"><text id="ProcessOnText1120" fill="#000000" font-size="18" x="60.5" y="18.45" font-family="微软雅黑" font-weight="normal" font-style="normal" text-decoration="none" family="微软雅黑" text-anchor="middle" size="18">follow</text></g></g><g id="ProcessOnG1121"><path id="ProcessOnPath1122" d="M475.001953125 448.01171875L475.001953125 472.51171875L275.501953125 472.51171875L275.501953125 453.51171875" stroke="#323232" stroke-width="2.0" stroke-dasharray="none" fill="none"/></g><g id="ProcessOnG1123" transform="matrix(1.0,0.0,0.0,1.0,608.001953125,243.01171875)" opacity="1.0"><path id="ProcessOnPath1124" d="M0.0 29.5C0.0 -9.833333333333334 98.0 -9.833333333333334 98.0 29.5C98.0 68.83333333333333 0.0 68.83333333333333 0.0 29.5Z" stroke="#323232" stroke-width="2.0" stroke-dasharray="none" opacity="1.0" fill="#ffffff"/><g id="ProcessOnG1125" transform="matrix(1.0,0.0,0.0,1.0,10.0,19.5)"><text id="ProcessOnText1126" fill="#000000" font-size="16" x="38.0" y="16.4" font-family="微软雅黑" font-weight="normal" font-style="normal" text-decoration="none" family="微软雅黑" text-anchor="middle" size="16">post_num</text></g></g><g id="ProcessOnG1127" transform="matrix(1.0,0.0,0.0,1.0,653.001953125,305.01171875)" opacity="1.0"><path id="ProcessOnPath1128" d="M0.0 29.5C0.0 -9.833333333333334 98.0 -9.833333333333334 98.0 29.5C98.0 68.83333333333333 0.0 68.83333333333333 0.0 29.5Z" stroke="#323232" stroke-width="2.0" stroke-dasharray="none" opacity="1.0" fill="#ffffff"/><g id="ProcessOnG1129" transform="matrix(1.0,0.0,0.0,1.0,10.0,9.5)"><text id="ProcessOnText1130" fill="#000000" font-size="16" x="38.0" y="16.4" font-family="微软雅黑" font-weight="normal" font-style="normal" text-decoration="none" family="微软雅黑" text-anchor="middle" size="16">follower_</text><text id="ProcessOnText1131" fill="#000000" font-size="16" x="38.0" y="36.4" font-family="微软雅黑" font-weight="normal" font-style="normal" text-decoration="none" family="微软雅黑" text-anchor="middle" size="16">num</text></g></g><g id="ProcessOnG1132" transform="matrix(1.0,0.0,0.0,1.0,653.001953125,373.51171875)" opacity="1.0"><path id="ProcessOnPath1133" d="M0.0 29.5C0.0 -9.833333333333334 98.0 -9.833333333333334 98.0 29.5C98.0 68.83333333333333 0.0 68.83333333333333 0.0 29.5Z" stroke="#323232" stroke-width="2.0" stroke-dasharray="none" opacity="1.0" fill="#ffffff"/><g id="ProcessOnG1134" transform="matrix(1.0,0.0,0.0,1.0,10.0,9.5)"><text id="ProcessOnText1135" fill="#000000" font-size="16" x="38.0" y="16.4" font-family="微软雅黑" font-weight="normal" font-style="normal" text-decoration="none" family="微软雅黑" text-anchor="middle" size="16">followee_</text><text id="ProcessOnText1136" fill="#000000" font-size="16" x="38.0" y="36.4" font-family="微软雅黑" font-weight="normal" font-style="normal" text-decoration="none" family="微软雅黑" text-anchor="middle" size="16">num</text></g></g><g id="ProcessOnG1137" transform="matrix(1.0,0.0,0.0,1.0,653.001953125,443.01171875)" opacity="1.0"><path id="ProcessOnPath1138" d="M0.0 29.5C0.0 -9.833333333333334 98.0 -9.833333333333334 98.0 29.5C98.0 68.83333333333333 0.0 68.83333333333333 0.0 29.5Z" stroke="#323232" stroke-width="2.0" stroke-dasharray="none" opacity="1.0" fill="#ffffff"/><g id="ProcessOnG1139" transform="matrix(1.0,0.0,0.0,1.0,10.0,9.5)"><text id="ProcessOnText1140" fill="#000000" font-size="16" x="38.0" y="16.4" font-family="微软雅黑" font-weight="normal" font-style="normal" text-decoration="none" family="微软雅黑" text-anchor="middle" size="16">is_spamm</text><text id="ProcessOnText1141" fill="#000000" font-size="16" x="38.0" y="36.4" font-family="微软雅黑" font-weight="normal" font-style="normal" text-decoration="none" family="微软雅黑" text-anchor="middle" size="16">er</text></g></g><g id="ProcessOnG1142"><path id="ProcessOnPath1143" d="M347.001953125 413.51171875L377.251953125 413.51171875L377.251953125 413.51171875L407.501953125 413.51171875" stroke="#323232" stroke-width="2.0" stroke-dasharray="none" fill="none"/></g><g id="ProcessOnG1144"><path id="ProcessOnPath1145" d="M283.001953125 334.51171875L475.001953125 334.51171875L475.001953125 379.01171875" stroke="#323232" stroke-width="2.0" stroke-dasharray="none" fill="none"/></g><g id="ProcessOnG1146"><path id="ProcessOnPath1147" d="M475.001953125 379.01171875L475.001953125 305.51171875L474.501953125 305.51171875L474.501953125 232.01171875" stroke="#323232" stroke-width="2.0" stroke-dasharray="none" fill="none"/></g><g id="ProcessOnG1148"><path id="ProcessOnPath1149" d="M576.001953125 257.01171875L576.001953125 318.01171875L475.001953125 318.01171875L475.001953125 379.01171875" stroke="#323232" stroke-width="2.0" stroke-dasharray="none" fill="none"/></g><g id="ProcessOnG1150"><path id="ProcessOnPath1151" d="M371.001953125 257.01171875L371.001953125 318.01171875L475.001953125 318.01171875L475.001953125 379.01171875" stroke="#323232" stroke-width="2.0" stroke-dasharray="none" fill="none"/></g><g id="ProcessOnG1152"><path id="ProcessOnPath1153" d="M290.001953125 302.01171875L290.001953125 318.51171875L475.001953125 318.51171875L475.001953125 379.01171875" stroke="#323232" stroke-width="2.0" stroke-dasharray="none" fill="none"/></g><g id="ProcessOnG1154"><path id="ProcessOnPath1155" d="M657.001953125 302.01171875L657.001953125 318.51171875L475.001953125 318.51171875L475.001953125 379.01171875" stroke="#323232" stroke-width="2.0" stroke-dasharray="none" fill="none"/></g><g id="ProcessOnG1156"><path id="ProcessOnPath1157" d="M653.001953125 334.51171875L475.001953125 334.51171875L475.001953125 379.01171875" stroke="#323232" stroke-width="2.0" stroke-dasharray="none" fill="none"/></g><g id="ProcessOnG1158"><path id="ProcessOnPath1159" d="M653.001953125 403.01171875L597.751953125 403.01171875L597.751953125 413.51171875L542.501953125 413.51171875" stroke="#323232" stroke-width="2.0" stroke-dasharray="none" fill="none"/></g><g id="ProcessOnG1160"><path id="ProcessOnPath1161" d="M653.001953125 472.51171875L597.751953125 472.51171875L597.751953125 413.51171875L542.501953125 413.51171875" stroke="#323232" stroke-width="2.0" stroke-dasharray="none" fill="none"/></g><g id="ProcessOnG1162" transform="matrix(1.0,0.0,0.0,1.0,298.751953125,58.01171875)" opacity="1.0"><path id="ProcessOnPath1163" d="M0.0 0.0L357.25 0.0L357.25 67.0L0.0 67.0Z" stroke="none" stroke-width="0.0" stroke-dasharray="none" opacity="1.0" fill="none"/><g id="ProcessOnG1164" transform="matrix(1.0,0.0,0.0,1.0,0.0,17.875)"><text id="ProcessOnText1165" fill="#000000" font-size="25" x="177.625" y="25.625" font-family="微软雅黑" font-weight="bold" font-style="normal" text-decoration="none" family="微软雅黑" text-anchor="middle" size="25">ER map of these 4 tables</text></g></g></g></g></svg>